<?xml version="1.0" encoding="utf-8"?>
<svg viewBox="0 0 500 500" xmlns="http://www.w3.org/2000/svg">
  <path fill="#fc6054" d="M 271.744 378.213 C 270.157 382.153 268.625 386.531 267.531 390.526 C 266.546 394.302 265.944 397.694 266.163 400.157 C 266.436 402.948 268.625 405.191 271.416 405.41 C 282.908 406.505 312.13 408.475 312.896 405.246 C 314.154 399.829 306.767 395.451 301.568 392.824 C 299.106 391.62 297.245 389.595 296.151 387.188 C 295.549 385.874 295.166 384.397 295.111 382.919 L 271.744 378.213 Z" style=""/>
  <path fill="#e64b38" d="M 271.744 378.213 C 270.157 382.153 268.625 386.531 267.531 390.526 C 276.122 395.998 289.091 390.854 296.096 387.242 C 295.494 385.929 295.111 384.451 295.056 382.974 L 271.744 378.213 Z" style=""/>
  <path fill="#112544" d="M 294.126 403.823 C 286.41 403.823 276.888 403.167 268.68 400.704 C 268.406 400.595 268.242 400.321 268.297 400.047 C 268.406 399.774 268.68 399.61 268.953 399.664 C 285.917 404.808 308.737 401.963 308.956 401.963 C 309.284 401.908 309.503 402.127 309.558 402.455 C 309.612 402.729 309.393 403.002 309.065 403.057 C 309.065 403.057 302.663 403.823 294.126 403.823 Z M 298.066 393.098 C 297.902 393.098 297.738 393.043 297.628 392.879 C 297.464 392.66 297.519 392.277 297.738 392.113 L 300.2 390.362 C 300.419 390.197 300.802 390.252 300.966 390.471 C 301.13 390.69 301.076 391.073 300.857 391.237 C 298.339 392.988 298.394 393.098 298.066 393.098 Z M 299.708 394.739 C 299.543 394.52 299.598 394.137 299.817 393.973 L 302.279 392.222 C 302.498 392.058 302.881 392.113 303.046 392.332 C 303.21 392.55 303.155 392.933 302.936 393.098 L 300.474 394.849 C 300.2 395.013 299.872 394.958 299.708 394.739 Z M 295.549 390.963 C 295.384 390.745 295.439 390.362 295.658 390.197 L 298.121 388.446 C 298.339 388.282 298.723 388.337 298.887 388.556 C 299.051 388.775 298.996 389.158 298.777 389.322 L 296.315 391.073 C 296.096 391.292 295.713 391.237 295.549 390.963 Z" style=""/>
  <path fill="#fc6054" d="M 122.899 365.244 C 119.835 368.199 116.661 371.592 114.034 374.766 C 111.571 377.775 109.656 380.676 108.89 382.974 C 107.96 385.655 109.109 388.556 111.517 389.924 C 121.586 395.56 147.524 409.241 149.494 406.614 C 152.832 402.182 147.852 395.122 144.186 390.69 C 142.435 388.61 141.505 385.984 141.505 383.357 C 141.505 381.88 141.724 380.402 142.271 379.034 L 122.899 365.244 Z" style=""/>
  <path fill="#e64b38" d="M 122.899 365.244 C 119.835 368.199 116.661 371.592 114.034 374.766 C 119.67 383.248 133.625 383.795 141.505 383.357 C 141.505 381.88 141.724 380.402 142.271 379.034 L 122.899 365.244 Z" style=""/>
  <path fill="#112544" d="M 147.032 403.112 C 146.813 403.057 124.595 396.272 110.969 384.561 C 110.751 384.342 110.696 384.014 110.915 383.795 C 111.134 383.576 111.462 383.521 111.681 383.74 C 125.143 395.287 147.086 402.017 147.305 402.072 C 147.579 402.182 147.743 402.455 147.688 402.729 C 147.579 403.057 147.305 403.221 147.032 403.112 Z M 140.574 389.158 C 140.52 388.884 140.684 388.556 141.012 388.501 L 143.967 387.899 C 144.241 387.844 144.569 388.008 144.624 388.337 C 144.679 388.61 144.514 388.939 144.186 388.993 L 141.231 389.595 C 140.957 389.595 140.629 389.431 140.574 389.158 Z M 141.724 391.675 C 141.669 391.401 141.833 391.073 142.161 391.018 L 145.116 390.416 C 145.39 390.362 145.718 390.526 145.773 390.854 C 145.828 391.182 145.664 391.456 145.335 391.511 L 142.38 392.113 C 142.052 392.167 141.778 392.003 141.724 391.675 Z M 139.48 386.586 C 139.425 386.312 139.589 385.984 139.918 385.929 L 142.873 385.327 C 143.146 385.272 143.475 385.437 143.529 385.765 C 143.584 386.038 143.42 386.367 143.092 386.422 L 140.137 387.023 C 139.808 387.078 139.535 386.859 139.48 386.586 Z M 190.372 115.162 L 184.845 115.162 C 184.517 115.162 184.298 114.943 184.298 114.615 C 184.298 114.286 184.517 114.067 184.845 114.067 L 190.372 114.067 C 190.7 114.067 190.919 114.286 190.919 114.615 C 190.919 114.943 190.645 115.162 190.372 115.162 Z" style=""/>
  <path d="M 300.857 375.422 C 299.926 380.347 299.27 383.357 299.27 383.357 C 297.464 386.531 263.591 383.685 263.591 380.84 C 264.63 355.065 273.441 332.52 263.153 316.267 C 256.422 305.596 242.577 305.432 228.842 294.159 C 224.3 302.86 212.808 324.64 206.679 332.301 C 195.297 346.474 150.26 381.168 150.26 381.168 C 144.788 386.038 110.149 371.92 114.308 366.065 C 114.308 366.065 161.971 325.406 168.921 306.417 C 179.756 276.812 195.352 252.899 211.604 240.258 L 242.139 244.964 L 254.616 246.879 C 254.616 246.879 256.914 248.63 260.526 251.53 C 273.058 261.599 301.459 285.677 306.055 299.467 C 311.363 315.501 304.249 357.747 300.857 375.422 Z" style="fill: rgb(202, 32, 98);"/>
  <path d="M 300.857 375.422 C 299.926 380.347 299.27 383.357 299.27 383.357 C 297.464 386.531 263.591 383.685 263.591 380.84 C 264.63 355.065 273.441 332.52 263.153 316.267 C 256.422 305.596 242.577 305.432 228.842 294.159 C 231.414 297.114 247.502 231.338 258.72 239.273 C 262.332 241.516 262.113 247.973 260.581 251.64 C 260.471 251.968 260.307 252.242 260.143 252.515 C 258.228 255.908 254.999 258.371 251.935 260.724 C 248.816 263.132 245.696 265.649 244 269.206 C 241.537 274.35 242.851 280.752 246.025 285.513 C 249.199 290.274 253.905 293.776 258.72 296.895 C 263.536 300.015 268.461 302.97 272.51 307.074 C 278.037 312.71 281.43 320.426 281.813 328.306 C 282.196 336.022 279.843 343.574 279.405 351.29 C 278.968 359.006 281.102 367.706 287.723 371.592 C 291.28 373.671 295.494 374.054 299.489 375.039 C 299.926 375.149 300.364 375.258 300.857 375.422 Z" style="fill: rgb(149, 9, 63);"/>
  <path fill="#112544" d="M 212.261 269.261 C 212.261 268.932 212.48 268.713 212.808 268.713 C 221.126 268.385 223.588 263.351 222.111 258.48 C 222.002 258.207 222.166 257.878 222.494 257.824 C 222.768 257.714 223.096 257.878 223.151 258.207 C 224.792 263.788 221.837 269.479 212.863 269.808 C 212.48 269.808 212.261 269.589 212.261 269.261 Z" style=""/>
  <path fill="#fcbba4" d="M 211.221 263.788 C 213.848 265.266 218.554 270.3 217.897 273.693 C 217.295 276.703 212.535 271.449 212.535 271.449 C 212.535 271.449 214.997 281.19 213.136 282.23 C 212.097 282.832 209.798 279.001 209.361 274.404 C 209.361 274.404 210.51 283.27 208.54 283.707 C 206.132 284.255 206.187 275.499 206.187 275.499 C 206.187 275.499 206.953 283.981 204.709 284.145 C 202.52 284.309 203.56 274.24 203.56 274.24 C 203.56 274.24 203.286 282.12 201.371 281.901 C 199.784 281.683 199.948 273.584 200.167 270.793 C 200.331 267.564 201.699 258.48 211.221 263.788 Z" style=""/>
  <path fill="#112544" d="M 222.603 305.87 C 222.33 305.706 222.275 305.377 222.385 305.104 C 239.02 276.593 244.766 248.958 244.821 248.685 C 244.876 248.411 245.149 248.192 245.477 248.247 C 245.751 248.302 245.97 248.575 245.915 248.904 C 245.861 249.177 240.06 276.976 223.315 305.651 C 223.205 305.925 222.877 306.034 222.603 305.87 Z" style=""/>
  <path fill="#112544" d="M 256.586 310.302 C 253.631 308.278 250.184 306.691 246.462 304.994 C 240.936 302.477 234.697 299.632 228.513 294.542 C 228.295 294.378 228.24 293.995 228.459 293.776 C 228.623 293.557 229.006 293.503 229.225 293.722 C 235.299 298.701 241.483 301.547 246.955 304.009 C 250.676 305.706 254.233 307.347 257.243 309.372 C 257.516 309.536 257.571 309.865 257.407 310.138 C 257.188 310.412 256.86 310.467 256.586 310.302 Z" style=""/>
  <path d="M 207.664 243.65 C 207.664 243.65 208.43 220.886 215.599 209.613 C 215.599 209.613 209.744 169.282 246.955 172.511 C 274.262 174.864 287.395 189.475 287.395 189.475 C 287.395 189.475 278.913 255.306 270.157 259.465 C 260.69 263.952 246.298 241.297 230.046 247.426 C 213.684 253.555 207.664 243.65 207.664 243.65 Z" style="fill: rgb(202, 32, 98);"/>
  <path d="M 344.197 212.513 C 324.114 241.845 303.648 260.56 285.097 255.47 C 283.345 254.978 281.649 254.212 280.117 253.117 C 260.745 240.093 255.711 186.958 255.711 186.958 L 267.257 177.108 C 301.185 186.739 298.832 224.388 298.832 224.388 C 301.349 220.557 304.414 217.055 307.642 213.936 C 318.642 203.32 331.665 197.246 331.665 197.246 L 344.197 212.513 Z" style="fill: rgb(202, 32, 98);"/>
  <path d="M 344.197 212.513 C 324.114 241.845 303.648 260.56 285.097 255.47 C 283.345 254.978 281.649 254.212 280.117 253.117 C 281.54 251.914 283.4 251.038 285.097 250.381 C 290.459 248.302 296.151 246.988 301.404 244.69 C 306.657 242.337 311.692 238.835 314.264 233.691 C 316.836 228.547 316.288 221.542 311.911 217.821 C 310.488 216.617 309.01 216.016 307.642 213.936 C 318.642 203.32 331.665 197.246 331.665 197.246 L 344.197 212.513 Z" style="fill: rgb(149, 9, 63);"/>
  <path fill="#fff" d="M 363.897 244.307 C 363.623 244.581 363.295 244.745 362.912 244.8 C 336.207 247.919 313.716 219.846 298.723 173.606 C 298.449 172.73 298.996 171.8 299.926 171.636 C 315.577 168.845 327.835 157.627 331.282 154.179 C 331.83 153.632 332.705 153.577 333.362 154.07 C 342.446 161.457 353.117 167.312 365.265 171.69 C 365.703 171.854 366.031 172.183 366.195 172.566 C 376.866 200.748 380.259 226.084 363.897 244.307 Z" style=""/>
  <path fill="#ff987a" d="M 268.351 149.035 L 268.461 148.98 C 268.68 148.871 268.844 149.145 268.625 149.254 C 268.57 149.254 268.57 149.309 268.516 149.309 C 268.297 149.418 268.133 149.145 268.351 149.035 Z M 268.516 149.145 L 268.57 149.309 L 268.516 149.145 Z M 263.864 150.02 C 263.864 150.02 263.864 150.02 263.864 150.02 C 263.645 150.02 263.426 149.965 263.208 149.965 C 263.098 149.965 263.043 149.801 263.098 149.692 C 263.153 149.637 263.208 149.637 263.262 149.637 C 263.481 149.637 263.7 149.692 263.919 149.692 C 264.083 149.692 264.083 150.02 263.864 150.02 Z" style=""/>
  <path fill="#ff987a" d="M 263.864 150.02 C 263.864 150.02 263.864 150.02 263.864 150.02 C 263.755 150.02 263.7 149.911 263.7 149.856 C 263.7 149.747 263.81 149.692 263.864 149.692 C 264.466 149.747 264.795 149.747 264.904 149.747 C 264.904 149.747 264.904 149.747 264.904 149.747 C 265.123 149.747 265.123 150.075 264.904 150.075 C 264.63 150.075 264.247 150.075 263.864 150.02 Z" style=""/>
  <path fill="#ff987a" d="M 265.068 150.075 C 264.849 150.075 264.849 149.747 265.068 149.747 C 265.232 149.747 265.451 149.747 265.615 149.747 C 265.725 149.747 265.78 149.801 265.78 149.911 C 265.78 150.02 265.725 150.075 265.615 150.075 C 265.451 150.02 265.232 150.075 265.068 150.075 C 265.068 150.075 265.068 150.075 265.068 150.075 Z" style=""/>
  <path fill="#fcbba4" d="M 247.229 175.083 C 248.159 176.396 249.472 178.202 251.223 179.68 C 256.094 183.893 263.7 181.704 265.615 175.576 L 267.859 168.407 C 267.859 168.407 273.878 169.83 275.848 164.084 C 276.396 162.497 276.286 159.651 275.739 156.423 C 275.575 155.219 275.301 153.96 275.028 152.647 C 274.426 149.692 273.605 146.627 272.784 144.001 C 271.088 144.876 268.57 145.205 264.904 144.657 C 264.904 144.657 262.715 149.309 256.203 146.299 C 256.203 146.299 259.705 153.249 253.303 155.438 C 252.154 155.821 250.895 155.547 249.636 154.89 C 249.965 156.806 250.676 157.572 252.044 159.104 L 246.736 171.034 C 246.244 172.347 246.408 173.879 247.229 175.083 Z" style=""/>
  <path fill="#112544" d="M 250.84 180.118 C 249.034 178.531 247.612 176.67 246.736 175.411 C 246.134 174.536 245.861 173.496 245.915 172.456 C 245.915 172.128 246.189 171.909 246.517 171.964 C 246.846 171.964 247.064 172.237 247.01 172.566 C 246.955 173.387 247.174 174.153 247.666 174.809 C 248.487 176.013 249.855 177.819 251.552 179.297 C 255.984 183.127 262.825 181.376 264.904 176.013 C 265.013 175.74 265.342 175.576 265.615 175.685 C 265.889 175.794 266.053 176.123 265.944 176.396 C 263.591 182.416 255.929 184.495 250.84 180.118 Z" style=""/>
  <path fill="#112544" d="M 246.462 173.058 C 246.134 173.058 245.915 172.785 245.97 172.456 C 246.025 171.854 246.134 171.307 246.408 170.76 C 246.517 170.486 246.846 170.377 247.119 170.486 C 247.393 170.596 247.502 170.924 247.393 171.198 C 247.229 171.636 247.119 172.073 247.064 172.511 C 247.01 172.839 246.791 173.058 246.462 173.058 Z M 275.356 133.658 C 276.779 137.16 277.764 146.682 264.959 144.657 C 264.959 144.657 262.77 149.309 256.258 146.299 C 256.258 146.299 259.76 153.249 253.358 155.438 C 247.01 157.572 236.394 139.842 248.706 137.817 C 248.706 137.817 247.831 133.877 252.208 135.19 C 252.208 135.19 253.631 126.927 261.84 131.688 C 261.84 131.688 271.307 123.699 275.356 133.658 Z" style=""/>
  <path fill="#112544" d="M 274.207 148.816 C 273.769 147.175 273.331 145.533 272.893 144.001 C 275.192 142.797 276.067 140.663 276.232 138.528 C 277.49 140.663 279.843 145.752 274.207 148.816 Z M 265.287 152.756 C 265.451 153.413 265.944 153.796 266.436 153.687 C 266.929 153.577 267.148 152.975 266.983 152.318 C 266.819 151.717 266.327 151.279 265.834 151.388 C 265.396 151.552 265.123 152.154 265.287 152.756 Z M 272.784 151.388 C 272.948 152.045 273.441 152.428 273.933 152.318 C 274.426 152.209 274.645 151.607 274.48 150.95 C 274.316 150.348 273.824 149.911 273.331 150.02 C 272.839 150.184 272.62 150.786 272.784 151.388 Z M 263.153 149.473 C 262.715 149.747 262.879 150.075 263.372 150.13 C 264.74 150.403 266.163 150.02 267.257 149.199 C 267.64 148.926 267.476 148.543 267.038 148.433 C 266.655 148.324 266.163 148.433 265.834 148.488 C 264.904 148.707 263.974 149.035 263.153 149.473 Z" style=""/>
  <path fill="#112544" d="M 270.65 147.667 C 270.267 147.886 270.322 148.214 270.869 148.324 C 272.237 148.597 273.66 148.214 274.754 147.393 C 275.137 147.12 274.973 146.737 274.535 146.627 C 274.152 146.518 273.66 146.627 273.331 146.682 C 272.456 146.846 271.525 147.175 270.65 147.667 Z" style=""/>
  <path fill="#f97a5d" d="M 269.555 162.169 C 269.337 162.004 269.282 161.621 269.446 161.402 C 269.61 161.184 269.993 161.129 270.212 161.293 C 272.018 162.661 273.112 161.512 273.222 161.348 C 273.441 161.129 273.769 161.074 273.988 161.293 C 274.207 161.512 274.262 161.84 274.043 162.059 C 273.112 163.208 271.307 163.537 269.555 162.169 Z" style=""/>
  <path fill="#e2805d" d="M 267.859 168.407 C 267.859 168.407 263.153 167.531 258.994 163.92 C 258.72 163.646 258.283 163.974 258.447 164.357 C 259.377 166.601 261.73 170.705 266.71 172.128 L 267.859 168.407 Z" style=""/>
  <path fill="#fcbba4" d="M 247.393 155.383 C 248.104 158.119 250.512 160.034 252.701 159.651 C 254.944 159.268 256.148 156.696 255.437 153.96 C 254.726 151.224 252.318 149.309 250.129 149.692 C 247.94 150.02 246.681 152.592 247.393 155.383 Z" style=""/>
  <path fill="#f97a5d" d="M 251.388 155.821 L 250.84 154.781 C 250.676 154.507 250.786 154.179 251.059 154.015 C 251.333 153.851 251.661 153.96 251.825 154.234 L 252.373 155.273 C 252.537 155.547 252.427 155.875 252.154 156.04 C 251.88 156.149 251.552 156.04 251.388 155.821 Z M 270.267 156.86 C 270.267 156.532 270.486 156.313 270.759 156.258 C 270.814 156.258 271.963 156.149 272.018 156.094 C 272.237 155.547 270.923 153.468 269.665 151.99 C 269.446 151.771 269.501 151.388 269.72 151.224 C 269.938 151.005 270.322 151.06 270.486 151.279 C 271.197 152.154 273.55 155.055 273.003 156.477 C 272.893 156.696 272.675 157.134 272.018 157.244 C 271.58 157.298 271.197 157.353 270.814 157.408 C 270.54 157.408 270.267 157.134 270.267 156.86 Z" style=""/>
  <path fill="#112544" d="M 298.175 173.77 C 297.792 172.566 298.558 171.307 299.817 171.088 C 315.303 168.297 327.507 157.134 330.845 153.796 C 331.611 153.03 332.815 152.975 333.635 153.687 C 342.501 160.91 353.171 166.82 365.375 171.198 C 365.977 171.417 366.414 171.854 366.633 172.402 C 372.598 188.107 375.608 201.076 375.717 212.185 C 375.881 225.318 372.105 235.989 364.28 244.69 C 363.952 245.073 363.459 245.292 362.967 245.347 C 329.477 249.287 308.573 205.837 298.175 173.77 Z M 331.611 154.562 C 328.163 157.955 315.796 169.337 299.981 172.183 C 299.379 172.292 298.996 172.894 299.215 173.441 C 309.448 205.016 330.024 248.083 362.803 244.252 C 363.186 244.198 363.405 243.979 363.459 243.924 C 377.687 228.054 378.344 206.111 365.593 172.73 C 365.484 172.456 365.265 172.237 364.992 172.128 C 352.679 167.696 341.899 161.731 332.924 154.453 C 332.541 154.179 331.994 154.179 331.611 154.562 Z" style=""/>
  <path fill="#fff" d="M 205.038 125.012 L 205.038 221.378 C 205.038 227.398 200.167 232.323 194.093 232.323 L 90.996 232.323 C 84.976 232.323 80.051 227.453 80.051 221.378 L 80.051 125.012 L 205.038 125.012 Z" style=""/>
  <path d="M 204.326 184.605 C 204.654 182.306 204.873 180.063 205.038 177.764 L 205.038 221.378 C 205.038 227.398 200.167 232.323 194.093 232.323 L 90.996 232.323 C 88.15 232.323 85.523 231.228 83.608 229.423 C 108.452 226.577 133.953 233.527 158.742 229.477 C 171.711 227.343 184.626 221.871 192.999 211.966 C 199.511 204.305 202.958 194.455 204.326 184.605 Z" style="fill: rgb(255, 204, 224);"/>
  <path fill="#ffc25e" d="M 205.038 125.012 L 205.038 115.928 C 205.038 109.909 200.167 104.983 194.093 104.983 L 90.996 104.983 C 84.976 104.983 80.051 109.854 80.051 115.928 L 80.051 125.012 L 205.038 125.012 Z" style=""/>
  <path fill="#efa130" d="M 205.038 115.928 L 205.038 125.012 L 80.106 125.012 L 80.106 121.4 L 195.735 121.4 C 198.909 121.4 201.481 118.828 201.481 115.654 L 201.481 112.262 C 201.481 110.182 200.879 108.212 199.894 106.57 C 202.958 108.54 205.038 111.988 205.038 115.928 Z" style=""/>
  <path fill="#112544" d="M 194.093 232.87 L 90.996 232.87 C 84.648 232.87 79.504 227.726 79.504 221.378 L 79.504 125.012 C 79.504 124.684 79.723 124.465 80.051 124.465 L 204.983 124.465 C 205.311 124.465 205.53 124.684 205.53 125.012 L 205.53 221.378 C 205.585 227.726 200.441 232.87 194.093 232.87 Z M 80.653 125.559 L 80.653 221.378 C 80.653 227.124 85.305 231.776 91.05 231.776 L 194.148 231.776 C 199.894 231.776 204.545 227.124 204.545 221.378 L 204.545 125.559 L 80.653 125.559 Z" style=""/>
  <path fill="#e1e5ff" d="M 164.871 157.408 C 164.871 169.72 154.912 179.68 142.599 179.68 C 130.287 179.68 120.327 169.72 120.327 157.408 C 120.327 145.095 130.287 135.136 142.599 135.136 C 154.857 135.136 164.871 145.095 164.871 157.408 Z" style=""/>
  <path fill="#ccd2ff" d="M 164.871 157.408 C 164.871 169.72 154.912 179.68 142.599 179.68 C 136.47 179.68 130.888 177.217 126.839 173.168 C 130.177 175.192 134.117 176.342 138.276 176.342 C 150.589 176.342 160.548 166.382 160.548 154.07 C 160.548 147.886 158.031 142.304 153.981 138.31 C 160.493 142.195 164.871 149.254 164.871 157.408 Z" style=""/>
  <path fill="#e1e5ff" d="M 177.403 192.321 L 177.403 200.967 C 177.403 202.225 176.363 203.265 175.104 203.265 L 110.039 203.265 C 108.781 203.265 107.741 202.225 107.741 200.967 L 107.741 192.321 C 107.741 191.062 108.781 190.022 110.039 190.022 L 175.05 190.022 C 176.363 190.022 177.403 191.062 177.403 192.321 Z" style=""/>
  <path fill="#ccd2ff" d="M 177.403 192.321 L 177.403 200.967 C 177.403 202.28 176.363 203.265 175.104 203.265 L 110.039 203.265 C 108.781 203.265 107.741 202.225 107.741 200.967 C 107.85 200.967 107.905 200.967 108.014 200.967 L 173.025 200.967 C 174.283 200.967 175.323 199.927 175.323 198.668 L 175.323 190.022 C 176.527 190.186 177.403 191.171 177.403 192.321 Z" style=""/>
  <path fill="#112544" d="M 205.038 125.559 L 80.106 125.559 C 79.778 125.559 79.559 125.34 79.559 125.012 L 79.559 115.928 C 79.559 109.58 84.703 104.436 91.05 104.436 L 194.148 104.436 C 200.496 104.436 205.639 109.58 205.639 115.928 L 205.639 125.012 C 205.585 125.286 205.366 125.559 205.038 125.559 Z M 80.653 124.465 L 204.49 124.465 L 204.49 115.928 C 204.49 110.182 199.839 105.531 194.093 105.531 L 90.996 105.531 C 85.25 105.531 80.598 110.182 80.598 115.928 L 80.598 124.465 L 80.653 124.465 Z" style=""/>
  <circle cx="90.503" cy="115.928" r="2.627" fill="#fff" style=""/>
  <circle cx="100.134" cy="115.928" r="2.627" fill="#fff" style=""/>
  <circle cx="109.766" cy="115.928" r="2.627" fill="#fff" style=""/>
  <path fill="#e1e5ff" d="M 93.13 115.928 C 93.13 117.405 91.926 118.555 90.503 118.555 C 89.409 118.555 88.479 117.898 88.095 116.968 C 90.23 117.898 92.473 115.654 91.543 113.465 C 92.473 113.903 93.13 114.834 93.13 115.928 Z M 102.761 115.928 C 102.761 117.405 101.557 118.555 100.134 118.555 C 99.04 118.555 98.11 117.898 97.727 116.968 C 99.97 117.898 102.104 115.6 101.174 113.465 C 102.104 113.903 102.761 114.834 102.761 115.928 Z M 112.392 115.928 C 112.392 117.405 111.188 118.555 109.766 118.555 C 108.671 118.555 107.741 117.898 107.358 116.968 C 109.492 117.898 111.79 115.654 110.805 113.465 C 111.736 113.903 112.392 114.834 112.392 115.928 Z" style=""/>
  <path fill="#112544" d="M 90.503 119.157 C 88.752 119.157 87.329 117.734 87.329 115.983 C 87.329 114.232 88.752 112.809 90.503 112.809 C 92.254 112.809 93.677 114.232 93.677 115.983 C 93.677 117.734 92.254 119.157 90.503 119.157 Z M 90.503 113.849 C 89.354 113.849 88.424 114.779 88.424 115.928 C 88.424 117.077 89.354 118.007 90.503 118.007 C 91.652 118.007 92.583 117.077 92.583 115.928 C 92.583 114.779 91.652 113.849 90.503 113.849 Z M 100.134 119.157 C 98.383 119.157 96.96 117.734 96.96 115.983 C 96.96 114.232 98.383 112.809 100.134 112.809 C 101.886 112.809 103.308 114.232 103.308 115.983 C 103.308 117.734 101.886 119.157 100.134 119.157 Z M 100.134 113.849 C 98.985 113.849 98.055 114.779 98.055 115.928 C 98.055 117.077 98.985 118.007 100.134 118.007 C 101.284 118.007 102.214 117.077 102.214 115.928 C 102.214 114.779 101.284 113.849 100.134 113.849 Z M 109.766 119.157 C 108.014 119.157 106.592 117.734 106.592 115.983 C 106.592 114.232 108.014 112.809 109.766 112.809 C 111.517 112.809 112.939 114.232 112.939 115.983 C 112.939 117.734 111.517 119.157 109.766 119.157 Z M 109.766 113.849 C 108.616 113.849 107.686 114.779 107.686 115.928 C 107.686 117.077 108.616 118.007 109.766 118.007 C 110.915 118.007 111.845 117.077 111.845 115.928 C 111.845 114.779 110.915 113.849 109.766 113.849 Z" style=""/>
  <path fill="#fc6054" d="M 157.976 213.772 L 157.976 222.418 C 157.976 223.677 156.936 224.716 155.678 224.716 L 129.466 224.716 C 128.207 224.716 127.167 223.677 127.167 222.418 L 127.167 213.772 C 127.167 212.513 128.207 211.474 129.466 211.474 L 155.678 211.474 C 156.936 211.474 157.976 212.513 157.976 213.772 Z" style=""/>
  <path fill="#e64b38" d="M 157.976 213.772 L 157.976 222.418 C 157.976 223.731 156.936 224.716 155.678 224.716 L 129.466 224.716 C 128.207 224.716 127.167 223.677 127.167 222.418 C 127.167 222.418 127.167 222.418 127.167 222.418 L 153.379 222.418 C 154.638 222.418 155.678 221.378 155.678 220.12 L 155.678 211.474 C 156.991 211.474 157.976 212.513 157.976 213.772 Z" style=""/>
  <path fill="#112544" d="M 175.05 203.867 L 110.039 203.867 C 108.452 203.867 107.194 202.554 107.194 201.022 L 107.194 192.375 C 107.194 190.788 108.507 189.53 110.039 189.53 L 175.05 189.53 C 176.637 189.53 177.895 190.843 177.895 192.375 L 177.895 201.022 C 177.95 202.554 176.637 203.867 175.05 203.867 Z M 110.039 190.57 C 109.054 190.57 108.288 191.39 108.288 192.321 L 108.288 200.967 C 108.288 201.952 109.109 202.718 110.039 202.718 L 175.05 202.718 C 176.035 202.718 176.801 201.897 176.801 200.967 L 176.801 192.321 C 176.801 191.336 175.98 190.57 175.05 190.57 L 110.039 190.57 Z" style=""/>
  <path fill="#fff" d="M 118.521 196.644 C 118.521 197.902 117.481 198.942 116.223 198.942 C 114.964 198.942 113.924 197.902 113.924 196.644 C 113.924 195.385 114.964 194.345 116.223 194.345 C 117.481 194.345 118.521 195.385 118.521 196.644 Z" style=""/>
  <path fill="#112544" d="M 116.223 199.489 C 114.636 199.489 113.377 198.231 113.377 196.644 C 113.377 195.057 114.636 193.798 116.223 193.798 C 117.81 193.798 119.068 195.057 119.068 196.644 C 119.068 198.231 117.81 199.489 116.223 199.489 Z M 116.223 194.893 C 115.238 194.893 114.472 195.659 114.472 196.644 C 114.472 197.629 115.238 198.395 116.223 198.395 C 117.208 198.395 117.974 197.629 117.974 196.644 C 117.974 195.659 117.208 194.893 116.223 194.893 Z" style=""/>
  <path fill="#fff" d="M 127.332 196.644 C 127.332 197.902 126.292 198.942 125.033 198.942 C 123.775 198.942 122.735 197.902 122.735 196.644 C 122.735 195.385 123.775 194.345 125.033 194.345 C 126.292 194.345 127.332 195.385 127.332 196.644 Z" style=""/>
  <path fill="#112544" d="M 124.978 199.489 C 123.391 199.489 122.133 198.231 122.133 196.644 C 122.133 195.057 123.391 193.798 124.978 193.798 C 126.565 193.798 127.824 195.057 127.824 196.644 C 127.879 198.231 126.565 199.489 124.978 199.489 Z M 124.978 194.893 C 123.993 194.893 123.227 195.659 123.227 196.644 C 123.227 197.629 123.993 198.395 124.978 198.395 C 125.963 198.395 126.73 197.629 126.73 196.644 C 126.784 195.659 125.963 194.893 124.978 194.893 Z" style=""/>
  <path fill="#fff" d="M 136.087 196.644 C 136.087 197.902 135.047 198.942 133.789 198.942 C 132.53 198.942 131.49 197.902 131.49 196.644 C 131.49 195.385 132.53 194.345 133.789 194.345 C 135.047 194.345 136.087 195.385 136.087 196.644 Z" style=""/>
  <path fill="#112544" d="M 133.789 199.489 C 132.202 199.489 130.943 198.231 130.943 196.644 C 130.943 195.057 132.202 193.798 133.789 193.798 C 135.376 193.798 136.634 195.057 136.634 196.644 C 136.634 198.231 135.376 199.489 133.789 199.489 Z M 133.789 194.893 C 132.804 194.893 132.038 195.659 132.038 196.644 C 132.038 197.629 132.804 198.395 133.789 198.395 C 134.774 198.395 135.54 197.629 135.54 196.644 C 135.54 195.659 134.774 194.893 133.789 194.893 Z" style=""/>
  <path fill="#fff" d="M 144.843 196.644 C 144.843 197.902 143.803 198.942 142.544 198.942 C 141.286 198.942 140.246 197.902 140.246 196.644 C 140.246 195.385 141.286 194.345 142.544 194.345 C 143.858 194.345 144.843 195.385 144.843 196.644 Z" style=""/>
  <path fill="#112544" d="M 142.544 199.489 C 140.957 199.489 139.699 198.231 139.699 196.644 C 139.699 195.057 140.957 193.798 142.544 193.798 C 144.131 193.798 145.39 195.057 145.39 196.644 C 145.39 198.231 144.131 199.489 142.544 199.489 Z M 142.544 194.893 C 141.559 194.893 140.793 195.659 140.793 196.644 C 140.793 197.629 141.559 198.395 142.544 198.395 C 143.529 198.395 144.295 197.629 144.295 196.644 C 144.295 195.659 143.529 194.893 142.544 194.893 Z" style=""/>
  <path fill="#fff" d="M 153.653 196.644 C 153.653 197.902 152.613 198.942 151.355 198.942 C 150.096 198.942 149.056 197.902 149.056 196.644 C 149.056 195.385 150.096 194.345 151.355 194.345 C 152.613 194.345 153.653 195.385 153.653 196.644 Z" style=""/>
  <path fill="#112544" d="M 151.355 199.489 C 149.768 199.489 148.509 198.231 148.509 196.644 C 148.509 195.057 149.768 193.798 151.355 193.798 C 152.942 193.798 154.2 195.057 154.2 196.644 C 154.2 198.231 152.942 199.489 151.355 199.489 Z M 151.355 194.893 C 150.37 194.893 149.604 195.659 149.604 196.644 C 149.604 197.629 150.37 198.395 151.355 198.395 C 152.34 198.395 153.106 197.629 153.106 196.644 C 153.106 195.659 152.34 194.893 151.355 194.893 Z" style=""/>
  <path fill="#fff" d="M 162.409 196.644 C 162.409 197.902 161.369 198.942 160.11 198.942 C 158.852 198.942 157.812 197.902 157.812 196.644 C 157.812 195.385 158.852 194.345 160.11 194.345 C 161.424 194.345 162.409 195.385 162.409 196.644 Z" style=""/>
  <path fill="#112544" d="M 160.11 199.489 C 158.523 199.489 157.265 198.231 157.265 196.644 C 157.265 195.057 158.523 193.798 160.11 193.798 C 161.697 193.798 162.956 195.057 162.956 196.644 C 162.956 198.231 161.697 199.489 160.11 199.489 Z M 160.11 194.893 C 159.125 194.893 158.359 195.659 158.359 196.644 C 158.359 197.629 159.125 198.395 160.11 198.395 C 161.095 198.395 161.861 197.629 161.861 196.644 C 161.861 195.659 161.095 194.893 160.11 194.893 Z" style=""/>
  <g transform="matrix(0.547225, 0, 0, 0.547225, 22.427748, 48.071922)" style="">
    <path fill="#fff" d="M271.9,271.5c0,2.3-1.9,4.2-4.2,4.2c-2.3,0-4.2-1.9-4.2-4.2c0-2.3,1.9-4.2,4.2-4.2         C270,267.3,271.9,269.2,271.9,271.5z"/>
    <path fill="#112544" d="M267.7,276.7c-2.9,0-5.2-2.3-5.2-5.2c0-2.9,2.3-5.2,5.2-5.2c2.9,0,5.2,2.3,5.2,5.2         C272.9,274.4,270.6,276.7,267.7,276.7z M267.7,268.3c-1.8,0-3.2,1.4-3.2,3.2c0,1.8,1.4,3.2,3.2,3.2c1.8,0,3.2-1.4,3.2-3.2         C270.9,269.7,269.4,268.3,267.7,268.3z"/>
  </g>
  <g transform="matrix(0.547225, 0, 0, 0.547225, 22.427748, 48.071922)" style="">
    <path fill="#112544" d="M243.5,323.9h-47.9c-2.9,0-5.2-2.4-5.2-5.2v-15.8c0-2.9,2.4-5.2,5.2-5.2h47.9c2.9,0,5.2,2.4,5.2,5.2v15.8       C248.7,321.5,246.4,323.9,243.5,323.9z M195.6,299.6c-1.8,0-3.2,1.5-3.2,3.2v15.8c0,1.8,1.5,3.2,3.2,3.2h47.9       c1.8,0,3.2-1.5,3.2-3.2v-15.8c0-1.8-1.5-3.2-3.2-3.2H195.6z"/>
  </g>
  <g transform="matrix(0.547225, 0, 0, 0.547225, 22.427748, 48.071922)" style="">
    <path d="M246.2,230.6c-18.6,16.2-47.3,12.2-60.8-8.6c6.2-1.8,13-2.5,20.6-2l0,0c0.2,0,0.4,0,0.5,0        c9.7,0.4,17.9,2.2,24.7,4.5c0,0,0,0,0,0C237.1,225.9,242,228,246.2,230.6z" style="fill: rgb(202, 32, 98);"/>
    <path fill="#ff987a" d="M231 191.1c-.1-.1 0-.3.1-.4l.1-.1c.1-.1.3 0 .4.1l0 0c.1.1.1.2.1.2C231.6 191.2 231.1 191.4 231 191.1zM231.4 190.9l.1.3L231.4 190.9zM225.8 192.2C225.8 192.2 225.8 192.2 225.8 192.2L225.8 192.2 225.8 192.2c-.3 0-.5 0-.8 0-.2 0-.3-.2-.2-.4.1-.1.2-.2.3-.2.3 0 .5 0 .8 0C226.2 191.7 226.2 192.2 225.8 192.2z"/>
    <path fill="#ff987a" d="M226.3,192.3c-0.3,0-0.4,0-0.5,0h0c-0.2,0-0.3-0.1-0.3-0.3c0-0.2,0.1-0.3,0.3-0.3h0l0,0l0,0        c0.4,0,0.9,0,1.3,0c0.4,0,0.4,0.6,0,0.6C226.8,192.2,226.6,192.3,226.3,192.3z"/>
    <path fill="#ff987a" d="M227.3,192.2c-0.4,0-0.4-0.6,0-0.6c0.2,0,0.4,0,0.7-0.1c0.2,0,0.3,0.1,0.3,0.3c0,0.2-0.1,0.3-0.3,0.3        C227.7,192.2,227.5,192.2,227.3,192.2C227.3,192.2,227.3,192.2,227.3,192.2z"/>
    <path fill="#fcbba4" d="M207,223.1c1.2,1.6,2.9,3.6,5,5.3c6.1,4.8,15.1,1.9,17.1-5.6l2.4-8.7c0,0,7.3,1.4,9.4-5.6        c0.6-2,0.3-5.4-0.5-9.2c-0.3-1.4-0.6-3-1-4.5c-0.9-3.5-2-7.1-3.1-10.3c-2,1.1-5,1.7-9.4,1.2c0,0-2.4,5.7-10.4,2.4        c0,0,4.5,8.2-3,11.1c-1.3,0.5-2.9,0.3-4.4-0.5c0.5,2.3,1.4,3.2,3.1,4.9l-5.8,14.6C205.7,219.8,205.9,221.7,207,223.1z"/>
    <path fill="#112544" d="M211.4 229.3c-1.8-1.5-3.6-3.3-5.2-5.5-.8-1.1-1.2-2.4-1.2-3.7 0-.6.5-1 1-1 .6 0 1 .5 1 1 0 .9.3 1.8.8 2.5 1 1.4 2.7 3.5 4.9 5.2 5.3 4.2 13 1.9 15.3-4.2.2-.5.8-.8 1.3-.6.5.2.8.8.6 1.3C227.1 231.5 217.8 234.3 211.4 229.3zM238.9 171.9c1.9 4.1 3.5 15.6-12 13.7 0 0-2.4 5.7-10.4 2.4 0 0 4.5 8.2-3 11.1s-21.2-17.9-6.5-21c0 0-1.2-4.7 4.1-3.3 0 0 1.3-10 11.4-4.7C222.5 170.2 233.5 160.1 238.9 171.9z"/>
    <path fill="#112544" d="M238.2 190.2c-.6-2-1.2-3.9-1.8-5.7 2.7-1.5 3.7-4.2 3.7-6.8C241.8 180.2 244.9 186.3 238.2 190.2zM227.7 195.4c.2.8.9 1.2 1.4 1.1.6-.2.8-.9.6-1.7-.2-.7-.9-1.2-1.4-1.1C227.7 193.9 227.5 194.6 227.7 195.4zM236.6 193.4c.2.8.9 1.2 1.4 1.1.6-.2.8-.9.6-1.7-.2-.7-.9-1.2-1.4-1.1C236.6 191.9 236.4 192.6 236.6 193.4zM224.9 191.5c-.5.3-.4.7.3.8 1.6.2 3.4-.2 4.6-1.3.4-.4.2-.8-.3-.9-.4-.1-1 .1-1.4.1C227 190.5 225.9 190.9 224.9 191.5z"/>
    <path fill="#112544" d="M233.9,189c-0.5,0.3-0.4,0.7,0.3,0.8c1.6,0.2,3.4-0.2,4.6-1.3c0.4-0.4,0.2-0.8-0.3-0.9        c-0.4-0.1-1,0.1-1.4,0.1C236,187.9,234.9,188.4,233.9,189z"/>
    <path fill="#e2805d" d="M233 206.8c-.5-.3-.6-.9-.2-1.4.3-.5.9-.6 1.4-.2 2 1.4 3 .2 3.1 0 .3-.4 1-.5 1.4-.2.4.3.5 1 .2 1.4C237.7 207.9 235.4 208.4 233 206.8zM231.5 214.1c0 0-5.7-.8-10.9-5-.4-.3-.9.1-.7.5 1.2 2.6 4.2 7.5 10.3 8.9L231.5 214.1z"/>
    <path fill="#fcbba4" d="M206.3,199.4c1,3.3,3.9,5.5,6.6,4.9c2.7-0.6,4-3.7,3-7c-1-3.3-3.9-5.5-6.6-4.9        C206.7,192.9,205.3,196.1,206.3,199.4z"/>
    <path fill="#e2805d" d="M210.8 199.9l-.7-1.2c-.3-.5-.1-1.1.3-1.4.5-.3 1.1-.1 1.4.3l.7 1.2c.3.5.1 1.1-.3 1.4C211.7 200.5 211.1 200.3 210.8 199.9zM233.5 200.1c-.1-.5.3-1 .9-1.1.4 0 .8-.1 1.2-.2-.1-.8-1.4-2.7-2.9-4.4-.4-.4-.3-1 .1-1.4.4-.4 1-.3 1.4.1 1.2 1.3 4 4.6 3.4 6.5-.1.4-.5 1-1.4 1.2-.5.1-1 .2-1.5.2C234.1 201 233.6 200.7 233.5 200.1z"/>
  </g>
  <g transform="matrix(0.547225, 0, 0, 0.547225, 22.427748, 48.071922)" style="">
    <path fill="#112544" d="M219.5,241.5c-23,0-41.7-18.7-41.7-41.7c0-23,18.7-41.7,41.7-41.7c23,0,41.7,18.7,41.7,41.7       C261.3,222.8,242.5,241.5,219.5,241.5z M219.5,160.1c-21.9,0-39.7,17.8-39.7,39.7c0,21.9,17.8,39.7,39.7,39.7       c21.9,0,39.7-17.8,39.7-39.7C259.3,177.9,241.4,160.1,219.5,160.1z"/>
  </g>
  <g transform="matrix(0.547225, 0, 0, 0.547225, 22.427748, 48.071922)" style="">
    <path d="M424.2,377.8c-13.4-8.7-28.5-18.5-44.5-12.5c-8,3-15.4,4.2-22.1,3.5c-0.5-0.1-1-0.5-0.9-1.1      c0.1-0.5,0.5-0.9,1.1-0.9c6.3,0.6,13.4-0.5,21.2-3.4c17-6.4,32.6,3.7,46.3,12.7c10.6,6.9,19.7,12.8,26.9,9.4      c8-3.8,18.1-41.5,27.6-103.3c0.1-0.5,0.6-0.9,1.1-0.8c0.5,0.1,0.9,0.6,0.8,1.1c-6.9,44.9-17.5,99.4-28.7,104.8      C444.2,391.5,433.2,383.6,424.2,377.8z" fill="#112544"/>
  </g>
  <g transform="matrix(0.547225, 0, 0, 0.547225, 22.427748, 48.071922)" style="">
    <path d="M375.5,258.3c4.6,39.1-23.5,56.5-23.5,56.5c7.1,14.2,6.4,43.9,5,64c-0.9,11.8-2,20.2-2,20.2      c-13.3-5.6-24.2-3.9-33.3,3.8c-10.8-31.3-13.9-59.6-13.3-81c0.4-13.9,2.5-24.8,5.1-31.8c12.2-32.3,41.8-68.6,94-62.8      L375.5,258.3z" style="fill: rgb(202, 32, 98);"/>
  </g>
  <g transform="matrix(0.547225, 0, 0, 0.547225, 22.427748, 48.071922)" style="">
    <path d="M357,378.9c-0.9,11.8-2,20.2-2,20.2c-13.3-5.6-24.2-3.9-33.3,3.8c-10.8-31.3-13.9-59.6-13.3-81      c0.7-0.1,1.4-0.1,2.1,0.1c3.3,0.9,4.5,4.7,5.2,8c2.7,13.6,3.8,27.4,3.3,41.2c-0.1,3.3-0.3,6.8,0.9,9.9c1.2,3.1,4.2,5.8,7.5,5.5      c5.3-0.6,7.2-7.6,11.7-10.4c3.1-1.9,7.1-1.6,10.6-0.4C352.2,376.6,354.5,377.8,357,378.9z" style="fill: rgb(149, 9, 63);"/>
  </g>
  <g transform="matrix(0.547225, 0, 0, 0.547225, 22.427748, 48.071922)" style="">
    <path fill="#112544" d="M321.7,403.9c-0.3,0-0.6-0.1-0.8-0.4c-0.4-0.4-0.3-1.1,0.1-1.4c9.4-8,20.5-9.4,33.2-4.5      c1.1-9,7-62.2-3.1-82.4c-0.2-0.5-0.1-1,0.4-1.3c0.3-0.2,27.5-17.6,23-55.5c-0.1-0.5,0.3-1,0.9-1.1c0.6-0.1,1,0.3,1.1,0.9      c4.2,35.6-18.7,53.8-23.2,57c10.7,23.1,3,81.5,2.7,84.1c0,0.3-0.2,0.6-0.5,0.7c-0.3,0.2-0.6,0.2-0.9,0.1      c-12.5-5.3-23.1-4.1-32.3,3.6C322.1,403.8,321.9,403.9,321.7,403.9z"/>
  </g>
  <g transform="matrix(0.547225, 0, 0, 0.547225, 22.427748, 48.071922)" style="">
    <path fill="#e1e5ff" d="M622.8,269.6c4.7,20.2-8,36.6-28.2,36.6c-11.5,0-23-5.3-31.6-13.6c7.9,5.9,17.3,9.5,26.8,9.5       c20.2,0,32.8-16.4,28.2-36.6c-2-8.7-6.9-16.7-13.4-23C613.5,249.2,620.3,258.8,622.8,269.6z"/>
    <path fill="#112544" d="M594.6,307.2c-20.6,0-41.2-16.8-46-37.4c-4.8-21,8.4-37.8,29.2-37.8c20.6,0,41.3,16.8,46,37.4l0,0       C628.6,290.4,615.4,307.2,594.6,307.2z M577.8,234c-19.5,0-31.7,15.7-27.2,35.4c4.5,19.8,24.3,35.8,44,35.8       c19.5,0,31.8-15.6,27.2-35.4C617.3,250,597.5,234,577.8,234z"/>
    <path d="M610.9,269.6c3.1,13.6-5.4,24.7-19,24.7s-27.2-11-30.3-24.7c-3.1-13.6,5.4-24.7,19-24.7       C594.2,244.9,607.7,255.9,610.9,269.6z" style="fill: rgb(202, 32, 98);"/>
    <path d="M610.9,269.6c3.1,13.6-5.4,24.7-19,24.7c-9.2,0-18.4-5-24.3-12.5c23.6,23.4,55.9-0.5,34.7-27.3       C606.4,258.6,609.6,263.9,610.9,269.6z" style="fill: rgb(149, 9, 63);"/>
    <path fill="#fff" d="M581,275.3l-5.2-6.3c-1.2-1.4-1.1-3.2,0.1-4c1.2-0.8,3.1-0.4,4.3,1l3,3.6l7.8-6.5c1.1-0.9,3-0.6,4.2,0.7        c1.2,1.3,1.3,3.1,0.2,4.1l-9.9,8.4C584.2,277.2,582.1,276.6,581,275.3z"/>
  </g>
  <g transform="matrix(0.547225, 0, 0, 0.547225, 22.427748, 48.071922)" style="">
    <path d="M538.9 158.9l-21.5-27.6c-.3-.4-.3-1.1.2-1.4.4-.3 1.1-.3 1.4.2l21.5 27.6c.3.4.3 1.1-.2 1.4C539.9 159.4 539.3 159.3 538.9 158.9zM552.1 175.8l-5.3-6.8c-.3-.4-.3-1.1.2-1.4.4-.3 1.1-.3 1.4.2l5.3 6.8c.3.4.3 1.1-.2 1.4C553.1 176.3 552.4 176.2 552.1 175.8zM501.3 184l-3.1-.7c-.5-.1-.9-.7-.8-1.2.1-.5.7-.9 1.2-.7l3.1.7c.5.1.9.7.8 1.2C502.4 183.8 501.8 184.2 501.3 184zM541.7 193.4L510 186c-.5-.1-.9-.7-.7-1.2.1-.5.7-.9 1.2-.7l31.7 7.3c.5.1.9.7.7 1.2C542.8 193.2 542.2 193.5 541.7 193.4zM573 135.6c-.5-.1-.9-.6-.9-1.1l.6-4.5c.1-.5.6-.9 1.1-.9.5.1.9.6.9 1.1l-.6 4.5C574.1 135.3 573.6 135.7 573 135.6zM568.2 173c-.5-.1-.9-.6-.9-1.1l3.1-24.2c.1-.5.6-.9 1.1-.9.5.1.9.6.9 1.1l-3.1 24.2C569.2 172.7 568.7 173.1 568.2 173z" style="fill: rgb(149, 9, 63);"/>
  </g>
  <g transform="matrix(0.547225, 0, 0, 0.547225, 22.427748, 48.071922)" style="">
    <path fill="#e1e5ff" d="M203.4,464.3c0,9.5,5.1,17.3,4,27c-1,9-7.9,18.6-16.8,23.4c-10.9,5.8-22.9,3.5-29.8-2.8       c-0.4-0.4-0.9-0.8-1.3-1.2c17.2,7.3,38.8-7.4,42.7-23.9c2.2-9.3-2-16.9-0.9-26.1c1.2-10.5,9.3-21.6,15.5-29.9       C215.1,433.6,203.4,452.7,203.4,464.3z"/>
    <path d="M160.1,512.6c-4-3.7-9-7-9.8-13.2c-0.9-6.3,2.4-13.8,8-18.8l0.7,0.8l-0.7-0.8c6.6-5.7,15.9-8.1,19.8-15.1       c3-5.3,1.6-10.3,0.5-26.1c-1.8-22.1-0.5-45.6,20.7-57.7c13.7-7.8,27.3-3.2,31.1,7.6c4.8,13.5-5.6,30.3-12.6,41.6       c-6,9.7-13.5,21.8-13.5,33.2c0,9.3,5.1,17.2,4,27.1c-1.1,9.3-8.2,19.3-17.3,24.1C180.2,521.4,167.6,519.4,160.1,512.6z        M200.3,383.6c-20.3,11.6-21.5,34.2-19.7,55.8c1.3,16.2,2.5,21.6-0.7,27.2c-4.2,7.6-13.9,10.1-20.2,15.6       c-5.1,4.4-8.1,11.4-7.4,17c0.7,5.3,5.4,8.5,9.2,12c6,5.5,17.5,8.6,28.6,2.6c8.6-4.6,15.2-13.9,16.2-22.6c1.1-9.4-4-17.3-4-26.9       c0-11.9,7.6-24.2,13.8-34.2c6.5-10.6,16.9-27.1,12.4-39.9C224.7,379,211.3,377.3,200.3,383.6z" style="fill: rgb(149, 9, 63);"/>
    <path d="M167.2,558.7c-0.4,0-0.7-0.2-0.9-0.5c-0.2-0.3-17.3-32.4,12-76.8c26.2-39.6,23.9-72.9,23.9-73.2       c0-0.6,0.4-1,0.9-1.1c0.6,0,1,0.4,1.1,0.9c0,0.3,2.4,34.3-24.2,74.5c-28.7,43.4-12.1,74.4-11.9,74.7       C168.4,557.9,168,558.7,167.2,558.7z" style="fill: rgb(202, 32, 98);"/>
    <path d="M165.4,497.7c-3.9-1.8-9.8-0.2-12.2-4c-1.3-2.2-1.1-5.5-0.7-8.7c1.6-15,2.9-24.3,1.3-32.3       c-5.7-27.9-40.5-5.2-28.7,20.1c2.2,4.7,5.5,8.5,8.2,12.8c2.7,4.3,4.9,9.4,4.7,15.4c-0.3,6.9-3.7,14.5-3.3,21.2       c0.4,6.2,4.5,10.8,9.9,11.1c6.7,0.4,14.3-5.7,18.8-12.8c2.5-3.9,5.7-8.1,6.3-12.6C170.4,503.4,168.7,499.2,165.4,497.7z" style="fill: rgb(149, 9, 63);"/>
    <path fill="#ccd2ff" d="M144.6,533.9c-5.7-0.3-9.9-5.1-10.4-11.6c-0.4-6.8,3-14.4,3.3-21.3c0.2-5-1.3-9.8-4.6-15.1       c-2.7-4.3-5.9-8.1-8.2-12.9c-1.9-4-3.6-10.2-1.6-17.3c5.1-17.6,26.8-24.1,31.2-3.1c1.7,8.1,0.3,17.4-1.3,32.4       c-0.3,2.6-0.6,6.2,0.7,8.3c1.3,2.2,4,2.5,6.7,2.8c1.8,0.2,3.6,0.4,5.2,1.1l0,0c3.5,1.6,5.4,6,4.6,10.9       c-0.7,4.7-3.9,8.9-6.4,12.8C159.8,527.3,152,534.3,144.6,533.9z M131.6,444.5c-3.4,2.9-6.2,7.2-7.5,11.5       c-2,6.8-0.3,12.8,1.5,16.6c2.2,4.7,5.4,8.5,8.1,12.8c3.4,5.5,4.9,10.5,4.7,15.7c-0.3,6.8-3.7,14.7-3.3,21.2       c0.4,6,4.3,10.4,9.4,10.6c6.9,0.4,14.4-6.2,18.4-12.5c2.5-3.9,5.6-8,6.3-12.4c0.6-4.4-1-8.4-4.1-9.8l0,0       c-1.4-0.7-3.2-0.8-4.9-1c-2.9-0.3-5.9-0.6-7.5-3.2c-1.4-2.3-1.2-5.4-0.8-9c1.5-14.6,3-24.1,1.3-32.1       C150.7,440.2,140.6,436.9,131.6,444.5z"/>
    <path d="M161 532.2c-.4-10.2-3.4-19-9.1-26.3-15.7-20.1-13.3-46-13.2-46.2.1-.5.6-.9 1.1-.9.5.1.9.5.9 1.1 0 .3-2.4 25.4 12.8 44.8 5.9 7.6 9.1 16.8 9.5 27.5 0 .6-.4 1-1 1C161.5 533.2 161 532.8 161 532.2zM180.2 558.7h-23.3c-.6 0-1-.4-1-1s.4-1 1-1h23.3c.6 0 1 .4 1 1S180.7 558.7 180.2 558.7z" style="fill: rgb(202, 32, 98);"/>
  </g>
  <g transform="matrix(0.547225, 0, 0, 0.547225, 22.427748, 48.071922)" style="">
    <path d="M398.2,124.8h-8.5c-0.6,0-1-0.4-1-1s0.4-1,1-1h7.2c-3.2-13.5,2.5-21.4,14-15.2c-1-21.3,22.8-15.2,38.3,2.9     c0.8-3.8,4.1-3.5,7.7-2h8.2c0.6,0,1,0.4,1,1s-0.4,1-1,1h-8.4c-1.7,0-5.9-3.7-5.6,2.6c0,1-1.2,1.4-1.8,0.7     c-14.1-17.8-38.7-26.8-36.2-4.4c0.1,0.8-0.8,1.4-1.5,1c-11.5-7.3-15.9,0.2-12.4,13.3C399.3,124.2,398.8,124.8,398.2,124.8z" style="fill: rgb(149, 9, 63);"/>
  </g>
</svg>